# xmcd
#
# Track frame offsets: 
#        150
#        19028
#        31081
#        46741
#        66429
#        79449
#        97127
#        111220
#        125028
#        143906
#        156626
#        175661
#        190226
#        203734
#        215764
#        226699
#        237559
#        250002
#        267057
#        283835
#        299210
#        315410
#
# Disc length: 4401 seconds
#
# Revision: 2
# Processed by: cddbd v1.5.2PL0 Copyright (c) Steve Scherf et al.
# Submitted via: ExactAudioCopyFreeDBPlugin 1.0
#
DISCID=50112f16
DTITLE=Various Artist - The All Time Greatest Songs - Country CD 2
DYEAR=2001
DGENRE=Country
TTITLE0=Kenny Rogers and Dolly Parton - Islands In The Stream
TTITLE1=Dolly Parton - Jolene
TTITLE2=Tanya Tucker - Down To My Last Teardrop
TTITLE3=The Mavericks - Dance The Night Away
TTITLE4=Mary Chapin Carpenter - Let Me Into Your Heart
TTITLE5=The Judds - Love Can Build A Bridge
TTITLE6=Elvis Costello and The Attractions - A Good Year For The Roses
TTITLE7=Don Williams - I'm Just A Country Boy
TTITLE8=Nanci Griffith - From A Distance
TTITLE9=Bobby Bare - Detroit City
TTITLE10=Bobbie Gentry - Ode To Billy Joe
TTITLE11=Bellamy Brothers - If I Said You Had A Beautiful Body (Would 
TTITLE11=You Hold It Against Me)
TTITLE12=Kenny Rogers - I Will Always Love You
TTITLE13=Tammy Wynette - Stand By Your Man
TTITLE14=Neil Diamond - Kentucky Woman
TTITLE15=Roger Miller - King Of The Road
TTITLE16=Johnny Cash and June Carter - Jackson
TTITLE17=Johnny Cash - Riders In The Sky
TTITLE18=Tony Joe White - Polk Salad Annie
TTITLE19=Billy Ray Cirus - Achy Breaky Heart
TTITLE20=The Charlie Daniels Band - The Devil Went Down To Georgia
TTITLE21=Eric Weissberg and Steve Mandell - Duelling Banjos
EXTD=
EXTT0=
EXTT1=
EXTT2=
EXTT3=
EXTT4=
EXTT5=
EXTT6=
EXTT7=
EXTT8=
EXTT9=
EXTT10=
EXTT11=
EXTT12=
EXTT13=
EXTT14=
EXTT15=
EXTT16=
EXTT17=
EXTT18=
EXTT19=
EXTT20=
EXTT21=
PLAYORDER=
